<svg width="165" height="13" viewBox="0 0 165 13" fill="none" xmlns="http://www.w3.org/2000/svg">
<path d="M0.78125 12H5.60156C9.01562 12 11.0312 9.89062 11.0312 6.28125V6.26562C11.0312 2.66406 9.01562 0.726562 5.60156 0.726562H0.78125V12ZM4.09375 9.36719V3.35938H5.13281C6.71094 3.35938 7.65625 4.375 7.65625 6.26562V6.28125C7.65625 8.35938 6.78906 9.36719 5.13281 9.36719H4.09375ZM11.1562 12H14.6406L15.2266 9.75781H18.6016L19.1875 12H22.6719L18.9922 0.726562H14.8359L11.1562 12ZM16.8828 3.41406H16.9453L17.9922 7.42188H15.8359L16.8828 3.41406ZM23.6875 12H27V8.92188H28.7266C31.3672 8.92188 33.0312 7.35156 33.0312 4.85156V4.83594C33.0312 2.33594 31.3672 0.726562 28.7266 0.726562H23.6875V12ZM27.9375 3.21875C29.0312 3.21875 29.6875 3.75781 29.6875 4.83594V4.85156C29.6875 5.92969 29.0312 6.47656 27.9375 6.47656H27V3.21875H27.9375ZM34.2031 12H37.5156V8.92188H39.2422C41.8828 8.92188 43.5469 7.35156 43.5469 4.85156V4.83594C43.5469 2.33594 41.8828 0.726562 39.2422 0.726562H34.2031V12ZM38.4531 3.21875C39.5469 3.21875 40.2031 3.75781 40.2031 4.83594V4.85156C40.2031 5.92969 39.5469 6.47656 38.4531 6.47656H37.5156V3.21875H38.4531ZM44.7188 12H52.4531V9.375H48.0312V0.726562H44.7188V12ZM53.7031 12H61.6562V9.375H57.0156V7.58594H61.3672V5.14844H57.0156V3.35156H61.6562V0.726562H53.7031V12ZM65.7422 12H69.0547V3.35156H72.0234V0.726562H62.7734V3.35156H65.7422V12ZM77.7031 12.2031C80.8125 12.2031 82.625 10.7266 82.625 8.39844V8.39062C82.625 6.5625 81.4766 5.57812 79.0625 5.14062L77.9297 4.9375C76.8047 4.73438 76.3203 4.49219 76.3203 3.98438V3.97656C76.3203 3.46094 76.7891 3.0625 77.7031 3.0625C78.6094 3.0625 79.2656 3.45312 79.3281 4.07031L79.3359 4.14844H82.3828L82.375 3.97656C82.2812 1.86719 80.6797 0.523438 77.6641 0.523438C74.9922 0.523438 73.0391 1.95312 73.0391 4.21875V4.22656C73.0391 5.97656 74.2656 7.10938 76.5078 7.50781L77.6406 7.71094C78.8906 7.9375 79.3438 8.15625 79.3438 8.6875V8.69531C79.3438 9.25781 78.7344 9.66406 77.7422 9.66406C76.8047 9.66406 76.0391 9.25781 75.9062 8.64844L75.8906 8.57812H72.8438L72.8516 8.72656C72.9688 10.9531 74.7812 12.2031 77.7031 12.2031ZM86.9062 12H90.2188V8.92188H91.9453C94.5859 8.92188 96.25 7.35156 96.25 4.85156V4.83594C96.25 2.33594 94.5859 0.726562 91.9453 0.726562H86.9062V12ZM91.1562 3.21875C92.25 3.21875 92.9062 3.75781 92.9062 4.83594V4.85156C92.9062 5.92969 92.25 6.47656 91.1562 6.47656H90.2188V3.21875H91.1562ZM97.4219 12H100.734V8.29688H101.82L103.602 12H107.305L105.164 7.80469C106.258 7.27344 106.977 6.00781 106.977 4.60156V4.58594C106.977 2.08594 105.398 0.726562 102.5 0.726562H97.4219V12ZM100.734 5.96094V3.17188H102.117C102.992 3.17188 103.602 3.74219 103.602 4.5625V4.57812C103.602 5.40625 103.008 5.96094 102.117 5.96094H100.734ZM113.727 12.2031C117.234 12.2031 119.414 9.96094 119.414 6.36719V6.35156C119.414 2.76562 117.227 0.523438 113.727 0.523438C110.25 0.523438 108.055 2.75781 108.055 6.35156V6.36719C108.055 9.96875 110.234 12.2031 113.727 12.2031ZM113.727 9.5C112.336 9.5 111.43 8.3125 111.43 6.36719V6.35156C111.43 4.40625 112.344 3.22656 113.727 3.22656C115.133 3.22656 116.039 4.41406 116.039 6.35156V6.36719C116.039 8.28906 115.156 9.5 113.727 9.5ZM124.508 12.2031C127.305 12.2031 128.898 10.7031 128.898 8.08594V0.726562H125.586V8.0625C125.586 8.96094 125.203 9.42969 124.461 9.42969C123.727 9.42969 123.25 8.92188 123.25 8.02344V8.00781H120.078V8.03125C120.078 10.6484 121.805 12.2031 124.508 12.2031ZM130.641 12H138.594V9.375H133.953V7.58594H138.305V5.14844H133.953V3.35156H138.594V0.726562H130.641V12ZM145.453 12.2031C148.555 12.2031 150.703 10.1797 150.703 7.53906V7.45312H147.531L147.523 7.53906C147.414 8.72656 146.602 9.5 145.461 9.5C144.094 9.5 143.242 8.35938 143.242 6.35156V6.34375C143.242 4.36719 144.094 3.22656 145.453 3.22656C146.68 3.22656 147.414 4.0625 147.508 5.17969L147.516 5.27344H150.688V5.20312C150.688 2.55469 148.586 0.523438 145.453 0.523438C142.016 0.523438 139.867 2.63281 139.867 6.35156V6.35938C139.867 10.0781 141.992 12.2031 145.453 12.2031ZM154.336 12H157.648V3.35156H160.617V0.726562H151.367V3.35156H154.336V12Z" fill="#2A2A2A"/>
<path d="M163.102 12.1562C164.016 12.1562 164.742 11.4297 164.742 10.5156C164.742 9.60156 164.016 8.875 163.102 8.875C162.188 8.875 161.461 9.60156 161.461 10.5156C161.461 11.4297 162.188 12.1562 163.102 12.1562Z" fill="#C50140"/>
</svg>
