<svg width="66" height="10" viewBox="0 0 66 10" fill="none" xmlns="http://www.w3.org/2000/svg">
<path d="M0.832031 9H4.44727C7.00781 9 8.51953 7.41797 8.51953 4.71094V4.69922C8.51953 1.99805 7.00781 0.544922 4.44727 0.544922H0.832031V9ZM3.31641 7.02539V2.51953H4.0957C5.2793 2.51953 5.98828 3.28125 5.98828 4.69922V4.71094C5.98828 6.26953 5.33789 7.02539 4.0957 7.02539H3.31641ZM8.61328 9H11.2266L11.666 7.31836H14.1973L14.6367 9H17.25L14.4902 0.544922H11.373L8.61328 9ZM12.9082 2.56055H12.9551L13.7402 5.56641H12.123L12.9082 2.56055ZM18.0117 9H20.4961V6.69141H21.791C23.7715 6.69141 25.0195 5.51367 25.0195 3.63867V3.62695C25.0195 1.75195 23.7715 0.544922 21.791 0.544922H18.0117V9ZM21.1992 2.41406C22.0195 2.41406 22.5117 2.81836 22.5117 3.62695V3.63867C22.5117 4.44727 22.0195 4.85742 21.1992 4.85742H20.4961V2.41406H21.1992ZM25.8984 9H28.3828V6.69141H29.6777C31.6582 6.69141 32.9062 5.51367 32.9062 3.63867V3.62695C32.9062 1.75195 31.6582 0.544922 29.6777 0.544922H25.8984V9ZM29.0859 2.41406C29.9062 2.41406 30.3984 2.81836 30.3984 3.62695V3.63867C30.3984 4.44727 29.9062 4.85742 29.0859 4.85742H28.3828V2.41406H29.0859ZM33.7852 9H39.5859V7.03125H36.2695V0.544922H33.7852V9ZM40.5234 9H46.4883V7.03125H43.0078V5.68945H46.2715V3.86133H43.0078V2.51367H46.4883V0.544922H40.5234V9ZM49.5527 9H52.0371V2.51367H54.2637V0.544922H47.3262V2.51367H49.5527V9ZM58.5234 9.15234C60.8555 9.15234 62.2148 8.04492 62.2148 6.29883V6.29297C62.2148 4.92188 61.3535 4.18359 59.543 3.85547L58.6934 3.70312C57.8496 3.55078 57.4863 3.36914 57.4863 2.98828V2.98242C57.4863 2.5957 57.8379 2.29688 58.5234 2.29688C59.2031 2.29688 59.6953 2.58984 59.7422 3.05273L59.748 3.11133H62.0332L62.0273 2.98242C61.957 1.40039 60.7559 0.392578 58.4941 0.392578C56.4902 0.392578 55.0254 1.46484 55.0254 3.16406V3.16992C55.0254 4.48242 55.9453 5.33203 57.627 5.63086L58.4766 5.7832C59.4141 5.95312 59.7539 6.11719 59.7539 6.51562V6.52148C59.7539 6.94336 59.2969 7.24805 58.5527 7.24805C57.8496 7.24805 57.2754 6.94336 57.1758 6.48633L57.1641 6.43359H54.8789L54.8848 6.54492C54.9727 8.21484 56.332 9.15234 58.5234 9.15234Z" fill="white"/>
<path d="M64.1543 9.11719C64.8398 9.11719 65.3848 8.57227 65.3848 7.88672C65.3848 7.20117 64.8398 6.65625 64.1543 6.65625C63.4688 6.65625 62.9238 7.20117 62.9238 7.88672C62.9238 8.57227 63.4688 9.11719 64.1543 9.11719Z" fill="#C50140"/>
</svg>
